<svg width="1376" height="1374" viewBox="0 0 1376 1374" fill="none" xmlns="http://www.w3.org/2000/svg">
<circle cx="688" cy="687" r="687" fill="#24292E"/>
<path d="M169.477 1059.22C164.631 1059.82 157.029 1060.01 146.673 1059.81C137.908 1052.52 129.512 1042.24 121.486 1028.96C113.885 1015.13 107.406 1000.43 102.05 984.856C97.1189 968.735 93.6715 952.678 91.7077 936.685C90.1692 920.148 91.2918 905.251 95.0757 891.996C95.0162 891.512 96.483 885.428 99.4761 873.746C102.954 862.004 107.286 847.205 112.473 829.35C117.601 811.011 123.489 790.856 130.138 768.886C136.728 746.431 143.378 724.46 150.087 702.975C156.795 681.489 163.258 662.002 169.473 644.512C176.114 626.479 182.02 612.471 187.189 602.489C190.718 595.169 193.792 588.15 196.411 581.433C199.514 574.657 202.435 568.395 205.173 562.647C209.433 553.269 213.297 544.677 216.767 536.872C220.661 528.523 224.917 521.113 229.533 514.643C234.576 507.628 240.221 501.524 246.471 496.329C252.661 490.649 260.394 485.518 269.67 480.936C275.783 482.645 281.199 484.686 285.918 487.058C290.577 488.946 294.841 491.62 298.71 495.08L302.14 504.99C303.526 508.263 305.278 510.508 307.395 511.724C309.937 512.396 311.935 512.642 313.389 512.464C319.868 513.144 325.407 514.186 330.007 515.589C335.032 516.448 340.24 516.792 345.63 516.622C347.926 519.292 349.979 521.992 351.79 524.721C354.086 527.391 356.352 529.818 358.588 532.004C370.006 544.868 379.669 557.456 387.576 569.768C395.483 582.08 397.239 596.377 392.842 612.659L394.551 620.566C397.391 623.661 398.989 626.662 399.346 629.57C399.703 632.478 399.725 636.657 399.41 642.107C399.401 646.044 399.452 650.465 399.563 655.371C400.098 659.733 401.42 664.49 403.529 669.642L409.332 674.833C417.562 677.758 425.312 678.774 432.581 677.882C442.274 676.692 450.73 673.44 457.949 668.126C465.167 662.812 471.902 657.558 478.151 652.363C483.006 647.831 487.466 644.086 491.53 641.127C496.079 638.109 500.475 635.847 504.717 634.342C513.705 623.4 521.871 613.788 529.218 605.507C536.989 596.681 545.003 587.826 553.259 578.941C568.98 562.745 584.098 545.638 598.612 527.622C613.067 509.121 623.653 487.159 630.37 461.737C635.285 457.69 641.135 455.25 647.92 454.416C654.705 453.583 661.668 454.204 668.81 456.279C675.893 457.869 683.035 459.944 690.236 462.503C691.809 463.294 693.11 463.872 694.139 464.238C695.652 464.544 697.196 465.092 698.768 465.883C699.423 471.214 702.199 475.793 707.096 479.619C709.758 481.26 711.603 482.263 712.631 482.629C713.66 482.995 714.689 483.36 715.718 483.726C719.892 485.673 723.31 487.467 725.972 489.108C729.117 490.69 731.626 493.087 733.496 496.301C739.465 508.851 747.984 518.136 759.054 524.156C758.739 529.606 759.636 534.907 761.745 540.06C763.794 544.728 766.085 549.366 768.618 553.974C769.826 555.794 770.791 557.643 771.513 559.522C772.177 560.917 773.142 562.766 774.408 565.07L758.237 565.58L762.381 581.305C764.847 589.366 765.251 598.663 763.592 609.198C762.419 619.673 760.493 628.026 757.814 634.259C760.569 648.679 762.482 660.251 763.553 668.974C764.564 677.213 765.032 685.027 764.955 692.416C764.878 699.804 764.045 707.04 762.455 714.122C761.29 720.661 759.457 727.773 756.958 735.459C763.419 772.054 763.193 806.272 756.279 838.114C749.851 869.896 742.215 899.858 733.372 928.001C732.334 931.572 731.267 934.901 730.17 937.987C729.073 941.074 728.219 944.13 727.607 947.157C722.454 949.266 717.816 951.557 713.692 954.031C709.568 956.505 705.717 959.192 702.137 962.091C697.223 966.138 692.249 969.701 687.215 972.778C682.122 975.372 676.668 977.025 670.852 977.739C645.507 963.633 629.79 935.8 623.704 894.24C618.101 852.62 620.551 798.451 631.053 731.732C634.148 728.893 635.156 725.079 634.076 720.292L633.094 712.296L625.735 712.461C623.312 712.759 621.161 713.269 619.282 713.992C617.403 714.714 616.217 717.074 615.724 721.07C601.584 734.121 586.049 747.835 569.121 762.212C552.617 776.045 535.297 789.241 517.161 801.799C498.966 813.872 480.107 824.55 460.585 833.835C441.488 842.575 422.49 848.105 403.588 850.426C355.124 856.377 315.499 836.153 284.713 789.754L276.563 777.472L270.722 789.996C269.565 792.598 267.495 797.771 264.51 805.517C261.951 812.719 259.298 821.162 256.552 830.846C254.29 840.471 252.3 850.308 250.582 860.358C249.349 870.348 249.664 878.919 251.525 886.069C246.364 892.114 241.292 898.886 236.31 906.385C231.812 913.825 228.887 922.055 227.535 931.076C226.863 933.619 226.918 936.072 227.7 938.435C228.423 940.314 229.418 942.406 230.685 944.71C230.616 948.162 229.945 950.704 228.669 952.337C227.394 953.969 225.876 955.632 224.116 957.323C221.99 960.044 219.895 963.007 217.828 966.213C215.703 968.933 213.879 972.109 212.357 975.74C211.745 978.766 211.404 982.006 211.336 985.458C211.209 988.425 211.051 991.15 210.864 993.633C211.519 998.964 211.238 1002.69 210.022 1004.81C206.425 1015.58 203.105 1024.59 200.061 1031.86C197.442 1038.57 194.645 1043.84 191.669 1047.64C188.693 1051.45 185.326 1054.08 181.568 1055.53C178.354 1057.4 174.323 1058.63 169.477 1059.22ZM835.452 942.033C834.058 942.696 833.029 942.33 832.366 940.936C831.702 939.541 831.282 938.117 831.103 936.663C831.409 935.15 831.987 933.849 832.838 932.761C834.173 931.613 835.869 931.404 837.926 932.136C830.674 925.155 825.692 918.634 822.98 912.571C820.752 906.449 816.65 899.082 810.673 890.469C811.948 888.836 812.679 886.779 812.867 884.296C812.994 881.329 813.394 878.574 814.066 876.032C814.253 873.549 814.771 871.763 815.622 870.675C816.897 869.043 818.623 869.077 820.8 870.777C819.176 865.565 818.64 861.204 819.193 857.692C819.746 854.181 820.328 850.911 820.94 847.884C822.037 844.798 822.65 841.771 822.777 838.804C822.905 835.837 821.761 832.533 819.347 828.894C827.008 815.163 831.399 800.849 832.522 785.953C833.585 770.572 833.615 756.794 832.612 744.618C836.439 739.721 839.359 733.459 841.375 725.832C843.874 718.146 845.375 710.336 845.877 702.404C846.379 694.471 846.184 686.87 845.291 679.6C844.339 671.846 842.626 665.907 840.152 661.783C840.398 659.785 841.248 658.697 842.702 658.518C844.581 657.795 846.762 657.528 849.245 657.715C850.257 637.913 849.79 616.078 847.844 592.212C846.382 568.286 846.008 545.21 846.723 522.985C847.863 500.215 851.54 480.086 857.756 462.596C863.912 444.622 875.659 432.111 892.995 425.063C897.876 436.762 903.546 446.889 910.008 455.443C916.954 463.937 924.113 472.159 931.485 480.109C939.341 487.999 947.197 495.89 955.053 503.78C962.909 511.67 970.4 520.59 977.525 530.538C978.409 541.744 978.774 554.736 978.62 569.513C978.952 584.231 978.586 599.28 977.523 614.661C976.944 629.983 976.064 644.849 974.882 659.261C974.184 673.613 973.219 685.784 971.986 695.775C972.768 698.138 974.672 699.626 977.699 700.238C980.667 700.366 981.479 702.972 980.135 708.056C993.773 702.938 1007.93 698.003 1022.59 693.25C1037.68 687.954 1052.32 682.959 1066.5 678.266C1081.11 673.029 1095.17 667.366 1108.69 661.279C1122.7 655.132 1135.61 648.135 1147.44 640.287C1147.49 616.667 1148.3 593.2 1149.86 569.887C1151.43 546.573 1149.09 523.493 1142.84 500.647C1145.45 497.867 1147.52 494.661 1149.04 491.031C1150.56 487.4 1153.2 484.862 1156.96 483.417C1152.68 472.627 1150.04 461.144 1149.04 448.969C1147.98 436.309 1148.49 424.439 1150.57 413.361C1153.14 402.222 1157.58 392.33 1163.9 383.683C1170.16 374.552 1178.47 368.12 1188.83 364.387C1196.26 372.822 1203.06 382.073 1209.21 392.14C1215.37 402.207 1221.55 412.516 1227.77 423.068C1233.92 433.135 1240.26 442.688 1246.78 451.726C1253.79 460.705 1262.07 468.051 1271.63 473.765C1275.16 490.549 1278.52 507.847 1281.69 525.66C1284.8 542.988 1287.76 561.073 1290.56 579.914C1288.88 602.259 1286.41 624.208 1283.15 645.761C1280.32 666.771 1279.12 689.056 1279.55 712.616C1276.21 717.454 1273.72 723.172 1272.07 729.77C1270.36 735.883 1268.68 742.239 1267.03 748.836C1265.8 754.89 1264.09 761.003 1261.9 767.176C1259.71 773.349 1256.67 778.642 1252.78 783.054C1255.55 789.601 1256.6 796.114 1255.92 802.593C1255.66 808.528 1258.22 815.347 1263.6 823.05C1266.41 837.955 1266.02 850.794 1262.42 861.566C1259.25 871.795 1253.99 881.049 1246.65 889.331C1239.72 897.068 1231.2 903.772 1221.07 909.443C1211.37 914.569 1201.64 919.454 1191.88 924.096C1186.68 921.783 1181.72 919.441 1177 917.068C1172.7 914.152 1167.56 912.324 1161.56 911.584L1164.4 904.595C1153.51 896.092 1143.78 886.956 1135.2 877.187C1127.05 866.873 1122.35 854.659 1121.11 840.545C1121.05 840.06 1121.15 836.851 1121.41 830.916C1121.6 824.497 1121.77 817.835 1121.9 810.931C1122.52 803.967 1122.96 797.518 1123.22 791.584C1123.9 785.105 1124.21 781.623 1124.15 781.138C1110.76 784.258 1097.09 789.134 1083.14 795.766C1069.2 802.398 1055.59 809.726 1042.31 817.752C1029.45 825.234 1017.38 833.112 1006.1 841.384C995.241 849.113 986.445 855.604 979.711 860.858C979.889 862.312 979.184 866.581 977.593 873.663C976.003 880.746 973.988 888.372 971.548 896.543C969.048 904.229 965.974 911.248 962.326 917.599C959.163 923.891 955.371 927.062 950.95 927.113C952.217 929.417 953.424 931.237 954.572 932.572C955.66 933.422 955.928 935.603 955.375 939.115C947.434 942.549 940.309 946.622 934 951.332C928.175 955.983 922.019 959.936 915.532 963.193C909.104 966.934 901.741 969.068 893.442 969.595C885.688 970.547 875.881 968.799 864.02 964.352C863.603 960.96 861.792 958.23 858.587 956.164C855.322 953.613 851.874 951.577 848.244 950.055C845.098 948.473 842.224 947.104 839.622 945.948C837.021 944.792 835.631 943.486 835.452 942.033Z" fill="#E1E4E8"/>
</svg>
